<svg xmlns="http://www.w3.org/2000/svg" viewBox="0 0 60.93 59.25"><defs><style>.cls-1{fill:#006837;}.cls-1,.cls-2{stroke:#000;stroke-miterlimit:10;stroke-width:0.5px;}.cls-2{fill:none;}</style></defs><title>Leaves</title><g id="Layer_2" data-name="Layer 2"><g id="Layer_2-2" data-name="Layer 2"><path class="cls-1" d="M59.83,30.06c-1.32,3.65-3.07,3.11-5.41,7.25-3.3,5.84-.76,8.54-3.84,12.34-1.49,1.84-2,1.13-10.58,5.33-6.35,3.12-7.42,4.19-9.92,4-3-.22-3.27-1.87-8-4.67C14,49.53,9,51,6.25,46.31c-1-1.64-.25-1.62-1.75-4.91C2.22,36.4.22,35.72.25,33s1.87-2.7,2.08-5.92c.2-3-1.36-3.64-.91-6.41a7.51,7.51,0,0,1,3-4.92c2-1.25,3.25-.1,4.83-1.33s1.1-2.75,2.25-5.67a14.76,14.76,0,0,1,3.58-5.5c4.51-4,12-3.25,14-1.83A8.12,8.12,0,0,0,31,2.4a7.65,7.65,0,0,0,2.59.42c4.77,0,7.15,0,8.9.56,3.18.94,5.1,3.55,6.18,5C51,11.55,50.19,13,52.42,15.15c2.39,2.31,3.93,1.26,5.91,3.25C61.15,21.23,61.14,26.47,59.83,30.06Z"/><path class="cls-2" d="M18.52,19.89a7.55,7.55,0,0,1,4.31-3.24,7.67,7.67,0,0,1,6.09,1"/><path class="cls-2" d="M41.33,23a9.24,9.24,0,0,1,8.34,4.08"/><path class="cls-2" d="M41.83,47.65a13.42,13.42,0,0,0-7.91-3.59,13.05,13.05,0,0,0-6,.92"/><path class="cls-2" d="M15.17,34.23a6,6,0,0,1,7.41,1.42"/></g></g></svg>