<svg xmlns="http://www.w3.org/2000/svg" viewBox="0 0 13.28 14.69"><defs><style>.cls-1{fill:#603813;stroke-width:0.5px;}.cls-1,.cls-2{stroke:#000;stroke-miterlimit:10;}.cls-2{fill:#a67c52;stroke-width:0.25px;}</style></defs><title>Trunk</title><g id="Layer_2" data-name="Layer 2"><g id="Layer_2-2" data-name="Layer 2"><path class="cls-1" d="M13,8.66c-.07.38-2.88,0-3.12.68s1.88,1.81,1.67,2.23-2.44-.82-3.51.06-.45,2.75-.83,2.81-.77-2.16-1.61-2.22-1.31,1.83-1.81,1.72S4,10.74,2.44,9.47c-.84-.7-1.95-.49-2-1s1.72-1,1.75-1.91S.14,5,.25,4.66s2,.72,3.6-.07A4.48,4.48,0,0,0,5.57,2.72C6.45,1.27,6.4.27,6.75.25c.73,0,1.07,4.17,2.79,4.47.6.11,1.15-.31,1.34-.06S10,5.85,10.13,6.72C10.36,7.94,13.09,8.28,13,8.66Z"/><circle class="cls-2" cx="6.64" cy="7.35" r="2.49"/></g></g></svg>