<svg xmlns="http://www.w3.org/2000/svg" viewBox="0 0 38.12 21.27"><defs><style>.cls-1{fill:#47270b;}.cls-1,.cls-2,.cls-3{stroke:#000;stroke-miterlimit:10;stroke-width:0.25px;}.cls-2{fill:#42210b;}.cls-3{fill:none;}</style></defs><title>Wood</title><g id="Layer_2" data-name="Layer 2"><g id="Layer_4" data-name="Layer 4"><path class="cls-1" d="M2,.29,36,.13a26,26,0,0,1,.58,5.71A27,27,0,0,1,36,11L1.91,10.89a32.64,32.64,0,0,1-.36-5.48A33.15,33.15,0,0,1,2,.29Z"/><path class="cls-2" d="M.63,9.8l36.75-.15a27.53,27.53,0,0,1,.62,6,28.34,28.34,0,0,1-.59,5.45L.53,21a35,35,0,0,1-.4-5.8A35.46,35.46,0,0,1,.63,9.8Z"/><path class="cls-3" d="M1.75,2.13a50.07,50.07,0,0,0,8.35-.08c1.07-.11,1.72-.21,3-.29a43.18,43.18,0,0,1,6.58.08c2.39.19,7,.38,16.64.33"/><path class="cls-3" d="M7.22,2.24l6,.84A14.35,14.35,0,0,0,17.49,3l6-1"/><ellipse class="cls-3" cx="15.22" cy="2.41" rx="2.84" ry="0.34"/><path class="cls-3" d="M1.62,3.59c.79,0,1.82,0,3,0,0,0,2,0,3.75.11,4.88.24,4.61.79,7.11.69s3.18-.73,6.76-.82c1.21,0,2.08,0,2.59,0,2.3.1,5.91.17,11.58,0"/><path class="cls-3" d="M1.55,5.21c3.93.07,6.31.09,7.8.09h.87c2.8,0,3.26.12,4.94.15,1.93,0,2-.08,5.56-.09h1.33c1.9,0,5.94,0,14.54-.07"/><line class="cls-3" x1="1.54" y1="6.86" x2="36.56" y2="6.86"/><line class="cls-3" x1="1.65" y1="8.61" x2="36.41" y2="8.63"/><path class="cls-3" d="M1.93.83c3.34,0,5.55,0,7,0H9.7c3,0,3.28-.18,5.06-.17s2,.16,4.62.17c.37,0,.65,0,.76,0l16,0"/><path class="cls-3" d="M.16,14.11H7.52c3.75,0,4.55-.9,6.85-1,2.53-.11,2.8.9,7.12,1,.67,0,1.17,0,1.44,0,2.25-.05,6.47-.07,15,0"/><path class="cls-3" d="M7.14,14.11c.42,0,1.08,0,1.88,0,3.11.12,3.74.75,5.85.8S17,14.38,20,14.13a23.47,23.47,0,0,1,4,0"/><path class="cls-3" d="M12.52,14.14c.74.06,1.53.09,2.38.09s1.46,0,2.12-.09"/><path class="cls-3" d="M.36,11.65c4.53,0,7.05,0,8.54,0h.69c2.82,0,3.19-.15,4.93-.14s2,.15,4.85.18h1.09c1.7,0,6.45,0,17.29.07"/><path class="cls-3" d="M.12,16.61l8.72,0h.59c3,0,3.37.32,5.22.33s2-.27,4.8-.29h1c1.69,0,6.52.05,17.48.08"/><line class="cls-3" x1="0.36" y1="19.49" x2="37.75" y2="19.49"/></g></g></svg>