<svg xmlns="http://www.w3.org/2000/svg" viewBox="0 0 12.72 10.37"><defs><style>.cls-1{fill:#fff;stroke:#000;stroke-miterlimit:10;}</style></defs><title>CurvedArrow</title><g id="Layer_2" data-name="Layer 2"><g id="Layer_1-2" data-name="Layer 1"><path class="cls-1" d="M.61,7.12l2,2.39A7.83,7.83,0,0,1,4.71,7.2,6.18,6.18,0,0,1,7.54,5.93a5.61,5.61,0,0,1,2,0l0,1.25L12.05,5,9.62,1.51,9.57,3a5.44,5.44,0,0,0-.94-.15,7.28,7.28,0,0,0-1.4.07,9.61,9.61,0,0,0-2.58.68A8.85,8.85,0,0,0,2.34,5.07,9.23,9.23,0,0,0,.61,7.12Z"/></g></g></svg>