<svg xmlns="http://www.w3.org/2000/svg" viewBox="0 0 3.2 14.6"><defs><style>.cls-1{fill:#754c24;}.cls-1,.cls-2,.cls-3,.cls-4,.cls-5{stroke:#000;stroke-miterlimit:10;}.cls-1,.cls-2,.cls-3,.cls-4{stroke-width:0.25px;}.cls-2{fill:#999;}.cls-3{fill:#666;}.cls-4{fill:none;}.cls-5{fill:gray;stroke-width:0.1px;}</style></defs><title>Pistol</title><g id="Layer_2" data-name="Layer 2"><g id="Pistol"><path class="cls-1" d="M1,10.52c.07,0,.22.64,0,.76a.29.29,0,0,1-.15,0c-.2,0-.48.21-.52,1.08l0,.88A1.11,1.11,0,0,0,1.5,14.48a1.17,1.17,0,0,0,1.31-1.22l0-.88c0-.76-.23-1-.44-1a.58.58,0,0,1-.21,0c-.28-.15-.17-.52-.08-.79"/><path class="cls-2" d="M1.52,14.46c.67,0,.6-.43.59-1.14l0-.77a7,7,0,0,0,0-1c0-.17,0-.19-.05-.21s-.13-.52-.06-.79c0-.07.3,0,.46,0S2.72,10,2.94,9c.11-.49.19-.62.09-.73s-.7-.15-.72-.2a2.87,2.87,0,0,1-.11-.86V7.13a1.88,1.88,0,0,0-.4,0,2.39,2.39,0,0,1-.41,0c-.11,0-.34-.06-.38,0a.35.35,0,0,0,0,.12,3.36,3.36,0,0,1-.07.83c0,.05-.5-.07-.71.17s-.11.39,0,.88l.23.79c.09.33.14.49.28.55a.9.9,0,0,0,.36,0s.17.64,0,.76-.05.1-.05.13,0,.14,0,1l.06.95C1.08,14.06.85,14.46,1.52,14.46Z"/><rect class="cls-3" x="1.14" y="0.13" width="0.94" height="7.01"/><path class="cls-4" d="M.91,8.08v.61"/><path class="cls-4" d="M.91,8.6c0,.06,0,1.23.28,1.35a1.86,1.86,0,0,0,.42,0c.26,0,.42.05.48,0A3.24,3.24,0,0,0,2.31,8.1"/><rect class="cls-5" x="1.43" y="10.34" width="0.24" height="1.95"/></g></g></svg>