<svg xmlns="http://www.w3.org/2000/svg" viewBox="0 0 3.33 42.28"><defs><style>.cls-1,.cls-3{fill:#754c24;}.cls-2{fill:#666;}.cls-2,.cls-3,.cls-4,.cls-5,.cls-6{stroke:#000;stroke-miterlimit:10;stroke-width:0.25px;}.cls-4{fill:#999;}.cls-5{fill:gray;}.cls-6{fill:none;}</style></defs><title>Sniper</title><g id="Layer_2" data-name="Layer 2"><g id="Layer_6" data-name="Layer 6"><rect class="cls-1" x="0.69" y="32.53" width="1.94" height="3.75"/><polygon class="cls-1" points="2.92 42.16 0.4 42.16 0.13 36.28 3.19 36.28 2.92 42.16"/><rect class="cls-1" x="0.13" y="17.16" width="3.06" height="15.38"/><rect class="cls-1" x="1.35" y="0.13" width="0.63" height="7"/><path class="cls-1" d="M1,24.85A20.75,20.75,0,0,1,.13,31.2V24.84c0-4.62,0-5.81,0-6.35A20.89,20.89,0,0,1,1,24.85Z"/><path class="cls-1" d="M2.19,24.85a19.07,19.07,0,0,0,1,6.35V24.84c0-4.62,0-5.81,0-6.35A19.22,19.22,0,0,0,2.19,24.85Z"/><rect class="cls-1" x="1.13" y="7.13" width="1.06" height="7.91"/><rect class="cls-1" x="0.76" y="15.03" width="1.81" height="2.13"/><rect class="cls-2" x="0.69" y="32.53" width="1.94" height="3.75"/><polygon class="cls-3" points="2.92 42.16 0.4 42.16 0.13 36.28 3.19 36.28 2.92 42.16"/><rect class="cls-4" x="0.13" y="17.16" width="3.06" height="15.38"/><rect class="cls-5" x="1.35" y="0.13" width="0.63" height="7"/><path class="cls-3" d="M1,24.85A20.75,20.75,0,0,1,.13,31.2V24.84c0-4.62,0-5.81,0-6.35A20.89,20.89,0,0,1,1,24.85Z"/><path class="cls-3" d="M2.19,24.85a19.07,19.07,0,0,0,1,6.35V24.84c0-4.62,0-5.81,0-6.35A19.22,19.22,0,0,0,2.19,24.85Z"/><rect class="cls-2" x="1.13" y="7.13" width="1.06" height="7.91"/><rect class="cls-4" x="0.76" y="15.03" width="1.81" height="2.13"/><rect class="cls-6" x="0.69" y="32.53" width="1.94" height="3.75"/><polygon class="cls-6" points="2.92 42.16 0.4 42.16 0.13 36.28 3.19 36.28 2.92 42.16"/><rect class="cls-6" x="0.13" y="17.16" width="3.06" height="15.38"/><rect class="cls-6" x="1.35" y="0.13" width="0.63" height="7"/><path class="cls-6" d="M1,24.85A20.75,20.75,0,0,1,.13,31.2V24.84c0-4.62,0-5.81,0-6.35A20.89,20.89,0,0,1,1,24.85Z"/><path class="cls-6" d="M2.19,24.85a19.07,19.07,0,0,0,1,6.35V24.84c0-4.62,0-5.81,0-6.35A19.22,19.22,0,0,0,2.19,24.85Z"/><rect class="cls-6" x="1.13" y="7.13" width="1.06" height="7.91"/><rect class="cls-6" x="0.76" y="15.03" width="1.81" height="2.13"/></g></g></svg>