<svg xmlns="http://www.w3.org/2000/svg" viewBox="0 0 26.79 26.67"><defs><style>.cls-1{fill:#f15a24;}.cls-1,.cls-2{stroke:#000;stroke-miterlimit:10;stroke-width:0.5px;}.cls-2{fill:#f7931e;}</style></defs><title>CampFire-Fire</title><g id="Layer_2" data-name="Layer 2"><g id="Layer_1-2" data-name="Layer 1"><path class="cls-1" d="M23.93,21.56c-.45.68-2.24-.22-2.88.57s.49,2.54.12,2.76-1.53-1.61-2.31-1.35-.45,2.71-1.07,2.87-1.05-2.16-2.93-3.72A8.11,8.11,0,0,0,8,21.31c-2.8.7-4.41,2.91-4.88,2.51s1.54-2.77.74-4S.55,19.51.27,18.75s3-1.62,3.66-4.17c.58-2.1-1.07-3.65-.39-6.14a8.29,8.29,0,0,0,.45-2c.07-1.08-.16-1.68.17-1.92s1.4.56,1.74.28c.58-.46-1.48-3.54-1-4S8.38,3.24,9.28,2.59c.58-.42-.11-1.94.46-2.28s1.35.51,2.08,1c3.75,2.75,6.79,1.15,9.91,3.71a4.66,4.66,0,0,0,1.75,1.07c1.56.5,2.81-.17,3,.23s-1.66,1.31-1.47,2c.14.5,1.12.47,1.19.9s-.86.81-1.41,1.18c-2.19,1.47-3,5.66-1.94,8.45C23.41,20.27,24.29,21.05,23.93,21.56Z"/><path class="cls-2" d="M22,20.09c-.38.56-1.86-.18-2.38.47s.4,2.09.09,2.28-1.26-1.33-1.9-1.12-.37,2.24-.89,2.38-.86-1.79-2.41-3.07a6.68,6.68,0,0,0-5.65-1.14c-2.31.57-3.64,2.4-4,2.07s1.27-2.29.61-3.31-2.75-.25-3-.88,2.44-1.34,3-3.44c.48-1.74-.88-3-.32-5.07a6.77,6.77,0,0,0,.37-1.67C5.6,6.7,5.41,6.21,5.68,6s1.16.46,1.44.23c.48-.38-1.23-2.93-.79-3.3S9.17,5,9.91,4.43c.48-.35-.09-1.6.38-1.88S11.41,3,12,3.4c3.1,2.27,5.61.95,8.19,3.07a4.06,4.06,0,0,0,1.44.89c1.29.4,2.32-.15,2.51.18s-1.37,1.08-1.21,1.68c.11.41.92.39,1,.74s-.71.67-1.16,1c-1.81,1.21-2.5,4.67-1.61,7C21.57,19,22.3,19.67,22,20.09Z"/></g></g></svg>